
        <svg xmlns="http://www.w3.org/2000/svg" xmlns:xlink="http://www.w3.org/1999/xlink" version="1.1" width="3146.9507758849686" 
        height="1004.368247926773" viewBox="0 0 3146.9507758849686 1004.368247926773">
			
			<g transform="scale(7.347538794248434) translate(10, 10)">
				<defs id="SvgjsDefs1111"><linearGradient id="SvgjsLinearGradient1118"><stop id="SvgjsStop1119" stop-color="#905e26" offset="0"></stop><stop id="SvgjsStop1120" stop-color="#f5ec9b" offset="0.5"></stop><stop id="SvgjsStop1121" stop-color="#905e26" offset="1"></stop></linearGradient></defs><g id="SvgjsG1112" featureKey="monogramFeature-0" transform="matrix(2.78241553798384,0,0,2.78241553798384,-0.8347225385805631,-50.25041782298147)" fill="url(#SvgjsLinearGradient1118)"><path d="M21.24 60 c-3.72 0 -7.2 -0.96 -10.38 -2.88 c-6.48 -3.78 -10.56 -10.92 -10.56 -18.06 c0 -3.72 0.96 -7.26 2.88 -10.56 c3.84 -6.66 10.44 -10.44 18.06 -10.44 c5.22 0 10.26 1.98 14.1 5.52 c0.12 0.06 0.3 0.18 0.48 0.36 l0.42 0.48 l-1.5 1.56 l-0.84 -0.84 c-3.42 -3.18 -7.92 -4.92 -12.66 -4.92 c-3.36 0 -6.48 0.84 -9.36 2.52 c-5.82 3.36 -9.42 9.6 -9.42 16.32 c0 3.36 0.84 6.48 2.52 9.36 c3.36 5.82 9.54 9.42 16.26 9.42 c4.08 0 7.2 -1.14 12.3 -4.44 l0 -13.8 l-13.14 0 l0 -2.16 l15.24 0 l0 17.1 l-0.42 0.36 c-5.34 3.66 -9.18 5.1 -13.98 5.1 z M21.24 55.92 c-3 0 -5.82 -0.78 -8.4 -2.28 c-5.28 -3.06 -8.52 -8.58 -8.52 -14.58 c0 -3.06 0.78 -5.94 2.28 -8.58 c3.06 -5.22 8.46 -8.34 14.64 -8.34 c3.42 0 6.72 1.08 9.9 3.18 l1.56 1.2 l0.78 0.78 l-4.32 4.68 l-1.92 -1.5 c-1.74 -1.26 -3.78 -1.92 -6 -1.92 c-1.8 0 -3.54 0.48 -5.16 1.38 c-3.3 1.92 -5.28 5.28 -5.28 9.12 c0 1.8 0.48 3.54 1.44 5.16 c1.86 3.3 5.22 5.28 9 5.28 c1.5 0 2.88 -0.3 4.14 -0.96 l0 -0.96 l-4.98 0 l0 -6.12 l11.22 0 l0 10.68 l-1.38 1.08 c-2.7 1.86 -5.46 2.7 -9 2.7 z M21.24 24.299999999999997 c-2.64 0 -5.1 0.66 -7.38 1.98 c-4.56 2.64 -7.38 7.5 -7.38 12.78 c0 2.64 0.66 5.1 1.98 7.32 c2.64 4.56 7.5 7.38 12.78 7.38 c2.94 0 5.58 -0.78 7.8 -2.28 l0.42 -0.36 l0 -7.5 l-6.9 0 l0 1.8 l4.98 0 l0 4.5 l-0.6 0.3 c-1.98 0.96 -3.84 1.44 -5.7 1.44 c-2.16 0 -4.26 -0.6 -6.24 -1.74 c-4.02 -2.34 -6.36 -6.24 -6.36 -10.86 c0 -2.28 0.54 -4.38 1.68 -6.36 c2.22 -3.84 6.3 -6.24 10.92 -6.24 c2.58 0 5.04 0.78 7.26 2.28 l0.42 0.3 l1.44 -1.56 l-0.48 -0.36 c-2.58 -1.86 -5.46 -2.82 -8.64 -2.82 z"></path></g><g id="SvgjsG1113" featureKey="nameFeature-0" transform="matrix(1.2487513391693887,0,0,1.2487513391693887,118.00199782755642,16.509490536853896)" fill="#ffffff"><path d="M1.6 23.16 c0 -11.16 0 -15.56 6 -15.56 c4.56 0 5.64 2.52 5.92 8.56 l-3.72 0 c-0.16 -4.36 -0.6 -5.36 -2.2 -5.36 c-2.24 0 -2.24 1.96 -2.24 12.36 c0 11.56 0 13.24 2.24 13.24 c2.12 0 2.24 -1.52 2.24 -10 l-2.64 0 l0 -3.2 l6.4 0 l0 1.56 c0 11.2 0 15.64 -6 15.64 s-6 -4.44 -6 -17.24 z M16.400000000000002 23.16 c0 -11.16 0.24 -15.56 6.24 -15.56 s6.24 4.4 6.24 15.56 c0 12.8 -0.24 17.24 -6.24 17.24 s-6.24 -4.44 -6.24 -17.24 z M20.4 23.16 c0 11.56 0 13.24 2.24 13.24 s2.24 -1.68 2.24 -13.24 c0 -10.4 0 -12.36 -2.24 -12.36 s-2.24 1.96 -2.24 12.36 z M32.28 23.16 l0 -15.16 l4 0 l0 15.16 c0 11.56 0 13.24 2 13.24 s2 -1.68 2 -13.24 l0 -15.16 l4 0 l0 15.16 c0 12.8 0 17.24 -6 17.24 s-6 -4.44 -6 -17.24 z M48.08 40 l0 -32 l4 0 l0 28 l5.2 0 l0 4 l-9.2 0 z M59.68 40 l0 -32 l6 0 c6 0 6 4.4 6 15.16 c0 12.4 0 16.84 -6 16.84 l-6 0 z M63.68 36 l2 0 c2.24 0 2.24 -1.68 2.24 -12.84 c0 -10 0 -11.96 -2.24 -11.96 l-2 0 l0 24.8 z M74.48 30.240000000000002 l4.04 0 c0.08 5.16 0.48 6.16 1.92 6.16 c1.96 0 1.96 -1.64 1.96 -6 c0 -6.4 -7.92 -4.68 -7.92 -13.2 c0 -5 0 -9.6 6 -9.6 c4.44 0 5.64 2.52 5.92 8.56 l-4 0 c-0.16 -4.36 -0.64 -5.36 -1.92 -5.36 c-1.96 0 -1.96 2.16 -1.96 6.4 c0 6.2 7.96 4 7.96 13.2 c0 5.6 0 10 -6.04 10 c-4.64 0 -5.72 -2.76 -5.96 -10.16 z M89.28 23.16 c0 -11.16 0.24 -15.56 6.24 -15.56 s6.24 4.4 6.24 15.56 c0 12.8 -0.24 17.24 -6.24 17.24 s-6.24 -4.44 -6.24 -17.24 z M93.28 23.16 c0 11.56 0 13.24 2.24 13.24 s2.24 -1.68 2.24 -13.24 c0 -10.4 0 -12.36 -2.24 -12.36 s-2.24 1.96 -2.24 12.36 z M105.36000000000001 40 l0 -32 l3.6 0 l5.24 19.6 l-0.04 -0.4 l0 -19.2 l4 0 l0 32 l-3.6 0 l-5.24 -17.6 l0.04 0.4 l0 17.2 l-4 0 z M122.16000000000001 40 l0 -32 l4 0 l0 32 l-4 0 z M129.96000000000004 23.16 l0 -15.16 l4 0 l0 15.16 c0 11.56 0 13.24 2 13.24 s2 -1.68 2 -13.24 l0 -15.16 l4 0 l0 15.16 c0 12.8 0 17.24 -6 17.24 s-6 -4.44 -6 -17.24 z M145.76000000000002 40 l0 -32 l3.6 0 l4.2 20 l0.4 0 l4.2 -20 l3.6 0 l0 32 l-4 0 l0 -16 l-2.84 16 l-2.4 0 l-2.76 -16 l0 16 l-4 0 z"></path></g><g id="SvgjsG1114" featureKey="sloganFeature-0" transform="matrix(1,0,0,1,118.29999995231628,71.17000102996826)" fill="#ffa500"><path d="M10.55 18.3 c0.18 0 0.3 0.12 0.3 0.3 l0 1.1 c0 0.18 -0.12 0.3 -0.3 0.3 l-8.55 0 c-0.18 0 -0.3 -0.12 -0.3 -0.3 l0 -13.4 c0 -0.18 0.12 -0.3 0.3 -0.3 l8.53 0 c0.18 0 0.3 0.12 0.3 0.3 l0 1.1 c0 0.18 -0.12 0.3 -0.3 0.3 l-6.96 0 l0 4.15 l6.43 0 c0.18 0 0.3 0.12 0.3 0.3 l0 1.1 c0 0.18 -0.12 0.3 -0.3 0.3 l-6.43 0 l0 4.75 l6.98 0 z M27.810000000000002 6 c0.18 0 0.3 0.12 0.3 0.3 l0 13.4 c0 0.18 -0.12 0.3 -0.3 0.3 l-1.27 0 c-0.18 0 -0.3 -0.12 -0.3 -0.3 l0 -10.15 l-4.29 10.22 c-0.06 0.16 -0.18 0.23 -0.34 0.23 l-1.24 0 c-0.16 0 -0.28 -0.07 -0.34 -0.23 l-4.26 -10.15 l0 10.08 c0 0.18 -0.12 0.3 -0.3 0.3 l-1.27 0 c-0.18 0 -0.3 -0.12 -0.3 -0.3 l0 -13.4 c0 -0.18 0.12 -0.3 0.3 -0.3 l1.59 0 c0.16 0 0.3 0.06 0.36 0.2 l4.85 11.69 l4.83 -11.69 c0.06 -0.14 0.2 -0.2 0.36 -0.2 l1.62 0 z M36.77 6 c3.69 0 5.04 1.56 5.04 4.39 c0 2.84 -1.35 4.4 -5.04 4.4 l-3.39 0 l0 4.91 c0 0.18 -0.12 0.3 -0.3 0.3 l-1.27 0 c-0.18 0 -0.3 -0.12 -0.3 -0.3 l0 -13.4 c0 -0.18 0.12 -0.3 0.3 -0.3 l4.96 0 z M36.900000000000006 13.09 c1.86 0 3.1 -0.5 3.1 -2.7 c0 -2.19 -1.24 -2.69 -3.1 -2.69 l-3.52 0 l0 5.39 l3.52 0 z M51.230000000000004 20.26 c-3.96 0 -7.17 -3.2 -7.17 -7.2 c0 -4.02 3.21 -7.22 7.17 -7.22 c3.95 0 7.16 3.2 7.16 7.22 c0 4 -3.21 7.2 -7.16 7.2 z M51.230000000000004 18.49 c2.97 0 5.32 -2.4 5.32 -5.43 c0 -3.05 -2.35 -5.45 -5.32 -5.45 c-2.98 0 -5.33 2.4 -5.33 5.45 c0 3.03 2.35 5.43 5.33 5.43 z M78.36000000000001 6 c0.22 0 0.29 0.14 0.24 0.34 l-3.57 13.42 c-0.04 0.16 -0.2 0.24 -0.36 0.24 l-1.53 0 c-0.16 0 -0.31 -0.08 -0.36 -0.24 l-3.17 -10.57 l-3.17 10.57 c-0.05 0.16 -0.19 0.24 -0.35 0.24 l-1.54 0 c-0.16 0 -0.32 -0.08 -0.36 -0.24 l-3.53 -13.42 c-0.06 -0.21 0.02 -0.34 0.24 -0.34 l1.29 0 c0.16 0 0.3 0.06 0.34 0.24 l2.83 11.41 l3.32 -11.41 c0.03 -0.11 0.09 -0.17 0.16 -0.21 c0.04 -0.02 0.1 -0.03 0.16 -0.03 l1.23 0 c0.06 0 0.12 0.01 0.16 0.03 c0.07 0.04 0.13 0.1 0.16 0.21 l3.32 11.41 l2.86 -11.41 c0.05 -0.18 0.18 -0.24 0.34 -0.24 l1.29 0 z M90.12 18.3 c0.18 0 0.3 0.12 0.3 0.3 l0 1.1 c0 0.18 -0.12 0.3 -0.3 0.3 l-8.55 0 c-0.18 0 -0.3 -0.12 -0.3 -0.3 l0 -13.4 c0 -0.18 0.12 -0.3 0.3 -0.3 l8.53 0 c0.18 0 0.3 0.12 0.3 0.3 l0 1.1 c0 0.18 -0.12 0.3 -0.3 0.3 l-6.96 0 l0 4.15 l6.43 0 c0.18 0 0.3 0.12 0.3 0.3 l0 1.1 c0 0.18 -0.12 0.3 -0.3 0.3 l-6.43 0 l0 4.75 l6.98 0 z M100.81 14.57 l2.68 5.08 c0.11 0.21 0.01 0.35 -0.22 0.35 l-1.32 0 c-0.16 0 -0.27 -0.07 -0.35 -0.22 l-2.58 -4.99 l-0.29 0 l-3.39 0 l0 4.91 c0 0.18 -0.12 0.3 -0.3 0.3 l-1.27 0 c-0.18 0 -0.3 -0.12 -0.3 -0.3 l0 -13.4 c0 -0.18 0.12 -0.3 0.3 -0.3 l4.96 0 c3.69 0 5.04 1.56 5.04 4.39 c0 2.22 -0.83 3.66 -2.96 4.18 z M95.34 7.699999999999999 l0 5.39 l3.52 0 c1.86 0 3.1 -0.5 3.1 -2.7 c0 -2.19 -1.24 -2.69 -3.1 -2.69 l-3.52 0 z M125.46000000000001 6 c0.24 0 0.33 0.15 0.2 0.36 l-5.25 8.21 l0 5.13 c0 0.18 -0.12 0.3 -0.3 0.3 l-1.27 0 c-0.18 0 -0.3 -0.12 -0.3 -0.3 l0 -5.13 l-5.26 -8.21 c-0.13 -0.21 -0.04 -0.36 0.2 -0.36 l1.47 0 c0.16 0 0.27 0.06 0.36 0.2 l4.16 6.51 l4.16 -6.51 c0.09 -0.14 0.2 -0.2 0.36 -0.2 l1.47 0 z M134.84 20.26 c-3.96 0 -7.17 -3.2 -7.17 -7.2 c0 -4.02 3.21 -7.22 7.17 -7.22 c3.95 0 7.16 3.2 7.16 7.22 c0 4 -3.21 7.2 -7.16 7.2 z M134.84 18.49 c2.97 0 5.32 -2.4 5.32 -5.43 c0 -3.05 -2.35 -5.45 -5.32 -5.45 c-2.98 0 -5.33 2.4 -5.33 5.45 c0 3.03 2.35 5.43 5.33 5.43 z M155.68 6 c0.18 0 0.3 0.12 0.3 0.3 l0 8.04 c0 3.98 -2.15 5.95 -5.67 5.95 c-3.51 0 -5.66 -1.97 -5.66 -5.95 l0 -8.04 c0 -0.18 0.12 -0.3 0.3 -0.3 l1.27 0 c0.18 0 0.3 0.12 0.3 0.3 l0 8.04 c0 2.83 1.5 4.18 3.79 4.18 c2.3 0 3.8 -1.35 3.8 -4.18 l0 -8.04 c0 -0.18 0.12 -0.3 0.3 -0.3 l1.27 0 z M166.37 14.57 l2.68 5.08 c0.11 0.21 0.01 0.35 -0.22 0.35 l-1.32 0 c-0.16 0 -0.27 -0.07 -0.35 -0.22 l-2.58 -4.99 l-0.29 0 l-3.39 0 l0 4.91 c0 0.18 -0.12 0.3 -0.3 0.3 l-1.27 0 c-0.18 0 -0.3 -0.12 -0.3 -0.3 l0 -13.4 c0 -0.18 0.12 -0.3 0.3 -0.3 l4.96 0 c3.69 0 5.04 1.56 5.04 4.39 c0 2.22 -0.83 3.66 -2.96 4.18 z M160.9 7.699999999999999 l0 5.39 l3.52 0 c1.86 0 3.1 -0.5 3.1 -2.7 c0 -2.19 -1.24 -2.69 -3.1 -2.69 l-3.52 0 z M184.23000000000002 12.01 c2.72 0.56 5.21 1.37 5.21 4.33 c0 2.4 -1.61 3.96 -5.15 3.96 c-3.03 0 -4.85 -1.12 -5.06 -3.42 c-0.02 -0.2 0.1 -0.36 0.28 -0.36 l1.22 0 c0.18 0 0.28 0.14 0.3 0.3 c0.17 1.1 1.33 1.78 3.26 1.78 c2.13 0 3.31 -0.72 3.31 -2.24 c0 -1.77 -1.23 -2.15 -3.37 -2.65 c-2.54 -0.58 -4.68 -1.45 -4.68 -4.16 c0 -2.26 1.53 -3.72 4.62 -3.72 c2.86 0 4.62 1.09 4.85 3.35 c0.02 0.2 -0.1 0.3 -0.28 0.3 l-1.13 0 c-0.18 0 -0.28 -0.08 -0.3 -0.24 c-0.15 -1.02 -1.26 -1.74 -3.13 -1.74 c-1.72 0 -2.83 0.7 -2.83 2.05 c0 1.36 0.91 2.05 2.88 2.46 z M199.01000000000002 20.26 c-3.96 0 -7.17 -3.2 -7.17 -7.2 c0 -4.02 3.21 -7.22 7.17 -7.22 c3.95 0 7.16 3.2 7.16 7.22 c0 4 -3.21 7.2 -7.16 7.2 z M199.01000000000002 18.49 c2.97 0 5.32 -2.4 5.32 -5.43 c0 -3.05 -2.35 -5.45 -5.32 -5.45 c-2.98 0 -5.33 2.4 -5.33 5.45 c0 3.03 2.35 5.43 5.33 5.43 z M218.27000000000004 6 c0.18 0 0.3 0.12 0.3 0.3 l0 1.1 c0 0.18 -0.12 0.3 -0.3 0.3 l-7.23 0 l0 4.28 l6.77 0 c0.18 0 0.3 0.12 0.3 0.3 l0 1.1 c0 0.18 -0.12 0.3 -0.3 0.3 l-6.77 0 l0 6.02 c0 0.18 -0.12 0.3 -0.3 0.3 l-1.27 0 c-0.18 0 -0.3 -0.12 -0.3 -0.3 l0 -13.4 c0 -0.18 0.12 -0.3 0.3 -0.3 l8.8 0 z M231.32000000000002 6 c0.18 0 0.3 0.12 0.3 0.3 l0 1.1 c0 0.18 -0.12 0.3 -0.3 0.3 l-4.19 0 l0 12 c0 0.18 -0.12 0.3 -0.3 0.3 l-1.27 0 c-0.18 0 -0.3 -0.12 -0.3 -0.3 l0 -12 l-4.19 0 c-0.18 0 -0.3 -0.12 -0.3 -0.3 l0 -1.1 c0 -0.18 0.12 -0.3 0.3 -0.3 l10.25 0 z M251.24 6 c0.22 0 0.29 0.14 0.24 0.34 l-3.57 13.42 c-0.04 0.16 -0.2 0.24 -0.36 0.24 l-1.53 0 c-0.16 0 -0.31 -0.08 -0.36 -0.24 l-3.17 -10.57 l-3.17 10.57 c-0.05 0.16 -0.19 0.24 -0.35 0.24 l-1.54 0 c-0.16 0 -0.32 -0.08 -0.36 -0.24 l-3.53 -13.42 c-0.06 -0.21 0.02 -0.34 0.24 -0.34 l1.29 0 c0.16 0 0.3 0.06 0.34 0.24 l2.83 11.41 l3.32 -11.41 c0.03 -0.11 0.09 -0.17 0.16 -0.21 c0.04 -0.02 0.1 -0.03 0.16 -0.03 l1.23 0 c0.06 0 0.12 0.01 0.16 0.03 c0.07 0.04 0.13 0.1 0.16 0.21 l3.32 11.41 l2.86 -11.41 c0.05 -0.18 0.18 -0.24 0.34 -0.24 l1.29 0 z M265.37 19.66 c0.08 0.2 -0.02 0.34 -0.24 0.34 l-1.29 0 c-0.16 0 -0.27 -0.06 -0.34 -0.24 l-0.99 -2.69 l-6.42 0 l-0.99 2.69 c-0.07 0.18 -0.18 0.24 -0.34 0.24 l-1.29 0 c-0.22 0 -0.32 -0.14 -0.24 -0.34 l5.08 -13.42 c0.06 -0.16 0.2 -0.24 0.36 -0.24 l1.26 0 c0.16 0 0.3 0.08 0.36 0.24 z M256.70000000000005 15.42 l5.2 0 l-2.6 -7.08 z M275.19000000000005 14.57 l2.68 5.08 c0.11 0.21 0.01 0.35 -0.22 0.35 l-1.32 0 c-0.16 0 -0.27 -0.07 -0.35 -0.22 l-2.58 -4.99 l-0.29 0 l-3.39 0 l0 4.91 c0 0.18 -0.12 0.3 -0.3 0.3 l-1.27 0 c-0.18 0 -0.3 -0.12 -0.3 -0.3 l0 -13.4 c0 -0.18 0.12 -0.3 0.3 -0.3 l4.96 0 c3.69 0 5.04 1.56 5.04 4.39 c0 2.22 -0.83 3.66 -2.96 4.18 z M269.72 7.699999999999999 l0 5.39 l3.52 0 c1.86 0 3.1 -0.5 3.1 -2.7 c0 -2.19 -1.24 -2.69 -3.1 -2.69 l-3.52 0 z M289.70000000000005 18.3 c0.18 0 0.3 0.12 0.3 0.3 l0 1.1 c0 0.18 -0.12 0.3 -0.3 0.3 l-8.55 0 c-0.18 0 -0.3 -0.12 -0.3 -0.3 l0 -13.4 c0 -0.18 0.12 -0.3 0.3 -0.3 l8.53 0 c0.18 0 0.3 0.12 0.3 0.3 l0 1.1 c0 0.18 -0.12 0.3 -0.3 0.3 l-6.96 0 l0 4.15 l6.43 0 c0.18 0 0.3 0.12 0.3 0.3 l0 1.1 c0 0.18 -0.12 0.3 -0.3 0.3 l-6.43 0 l0 4.75 l6.98 0 z"></path></g>
			</g>
		</svg>
	